<svg width="141" height="129" viewBox="0 0 141 129" fill="none" xmlns="http://www.w3.org/2000/svg">
<g opacity="0.19">
<mask id="mask0_130_761" style="mask-type:luminance" maskUnits="userSpaceOnUse" x="30" y="-32" width="58" height="64">
<path d="M30.1855 -32H87.4685V31.8535H30.1855V-32Z" fill="white"/>
</mask>
<g mask="url(#mask0_130_761)">
<path d="M41.9028 -3.48401C41.9028 -12.8256 49.5195 -20.4257 58.8824 -20.4257C68.2444 -20.4257 75.8611 -12.8256 75.8611 -3.48401V31.6632H87.4607V-3.48401C87.4607 -19.2074 74.6401 -31.999 58.8824 -31.999C43.1238 -31.999 30.3042 -19.2074 30.3042 -3.48401V13.1256H41.9028V-3.48401Z" fill="white"/>
</g>
<mask id="mask1_130_761" style="mask-type:luminance" maskUnits="userSpaceOnUse" x="31" y="65" width="59" height="64">
<path d="M31.8311 65.335H89.151V129H31.8311V65.335Z" fill="white"/>
</mask>
<g mask="url(#mask1_130_761)">
<path d="M77.448 100.485C77.448 109.827 69.8313 117.427 60.4693 117.427C51.1064 117.427 43.4897 109.827 43.4897 100.485V65.3389H31.8911V100.485C31.8911 116.208 44.7107 129 60.4693 129C76.227 129 89.0466 116.208 89.0466 100.485V83.8764H77.448V100.485Z" fill="white"/>
</g>
<mask id="mask2_130_761" style="mask-type:luminance" maskUnits="userSpaceOnUse" x="-21" y="20" width="64" height="58">
<path d="M-21 20.6704H42.8878V77.8286H-21V20.6704Z" fill="white"/>
</mask>
<g mask="url(#mask2_130_761)">
<path d="M-9.40137 49.2931C-9.40137 39.9505 -1.78375 32.3495 7.57823 32.3495H42.8012V20.7771H7.57823C-8.17944 20.7771 -21 33.5688 -21 49.2931C-21 65.0164 -8.17944 77.8081 7.57823 77.8081H24.2232V66.2347H7.57823C-1.78375 66.2347 -9.40137 58.6347 -9.40137 49.2931Z" fill="white"/>
</g>
<mask id="mask3_130_761" style="mask-type:luminance" maskUnits="userSpaceOnUse" x="76" y="19" width="65" height="58">
<path d="M76.5474 19.1792H140.351V76.3374H76.5474V19.1792Z" fill="white"/>
</mask>
<g mask="url(#mask3_130_761)">
<path d="M111.773 19.1929H95.1283V30.7662H111.773C121.136 30.7662 128.753 38.3673 128.753 47.7088C128.753 57.0514 121.136 64.6524 111.773 64.6524H76.5503V76.2248H111.773C127.532 76.2248 140.351 63.4332 140.351 47.7088C140.351 31.9855 127.532 19.1929 111.773 19.1929Z" fill="white"/>
</g>
</g>
</svg>
