<svg width="102" height="194" viewBox="0 0 102 194" fill="none" xmlns="http://www.w3.org/2000/svg">
<g opacity="0.19">
<mask id="mask0_130_805" style="mask-type:luminance" maskUnits="userSpaceOnUse" x="61" y="0" width="70" height="77">
<path d="M61.667 0H130.679V76.9282H61.667V0Z" fill="white"/>
</mask>
<g mask="url(#mask0_130_805)">
<path d="M75.7836 34.355C75.7836 23.1006 84.9599 13.9444 96.24 13.9444C107.519 13.9444 116.695 23.1006 116.695 34.355V76.699H130.67V34.355C130.67 15.4121 115.224 0.0012207 96.24 0.0012207C77.2546 0.0012207 61.8101 15.4121 61.8101 34.355V54.3657H75.7836V34.355Z" fill="white"/>
</g>
<mask id="mask1_130_805" style="mask-type:luminance" maskUnits="userSpaceOnUse" x="63" y="117" width="70" height="77">
<path d="M63.6489 117.265H132.706V193.967H63.6489V117.265Z" fill="white"/>
</mask>
<g mask="url(#mask1_130_805)">
<path d="M118.607 159.613C118.607 170.867 109.431 180.023 98.1516 180.023C86.8715 180.023 77.6953 170.867 77.6953 159.613V117.27H63.7217V159.613C63.7217 178.556 79.1662 193.967 98.1516 193.967C117.136 193.967 132.58 178.556 132.58 159.613V139.603H118.607V159.613Z" fill="white"/>
</g>
<mask id="mask2_130_805" style="mask-type:luminance" maskUnits="userSpaceOnUse" x="0" y="63" width="77" height="70">
<path d="M0 63.4551H76.9695V132.317H0V63.4551Z" fill="white"/>
</mask>
<g mask="url(#mask2_130_805)">
<path d="M13.9736 97.9387C13.9736 86.6831 23.151 77.5257 34.4299 77.5257H76.8652V63.5837H34.4299C15.4457 63.5837 0 78.9946 0 97.9387C0 116.882 15.4457 132.292 34.4299 132.292H54.4831V118.349H34.4299C23.151 118.349 13.9736 109.193 13.9736 97.9387Z" fill="white"/>
</g>
</g>
</svg>
