<svg width="107" height="107" viewBox="0 0 107 107" fill="none" xmlns="http://www.w3.org/2000/svg">
<g opacity="0.19">
<mask id="mask0_130_783" style="mask-type:luminance" maskUnits="userSpaceOnUse" x="33" y="0" width="39" height="43">
<path d="M33.9438 0H71.9309V42.3443H33.9438V0Z" fill="white"/>
</mask>
<g mask="url(#mask0_130_783)">
<path d="M41.7141 18.9104C41.7141 12.7155 46.765 7.67558 52.9741 7.67558C59.1824 7.67558 64.2334 12.7155 64.2334 18.9104V42.2182H71.9256V18.9104C71.9256 8.4835 63.4237 0.000732422 52.9741 0.000732422C42.5237 0.000732422 34.0225 8.4835 34.0225 18.9104V29.9251H41.7141V18.9104Z" fill="white"/>
</g>
<mask id="mask1_130_783" style="mask-type:luminance" maskUnits="userSpaceOnUse" x="35" y="64" width="39" height="43">
<path d="M35.0347 64.5474H73.0462V106.767H35.0347V64.5474Z" fill="white"/>
</mask>
<g mask="url(#mask1_130_783)">
<path d="M65.2856 87.8571C65.2856 94.0519 60.2347 99.0919 54.0263 99.0919C47.8173 99.0919 42.7663 94.0519 42.7663 87.8571V64.5499H35.0747V87.8571C35.0747 98.284 43.576 106.767 54.0263 106.767C64.476 106.767 72.9772 98.284 72.9772 87.8571V76.8431H65.2856V87.8571Z" fill="white"/>
</g>
<mask id="mask2_130_783" style="mask-type:luminance" maskUnits="userSpaceOnUse" x="0" y="34" width="43" height="39">
<path d="M0 34.9282H42.367V72.8325H0V34.9282Z" fill="white"/>
</mask>
<g mask="url(#mask2_130_783)">
<path d="M7.6916 53.9093C7.6916 47.7138 12.7432 42.6732 18.9516 42.6732H42.3096V34.999H18.9516C8.50193 34.999 0 43.4818 0 53.9093C0 64.3362 8.50193 72.819 18.9516 72.819H29.9896V65.1441H18.9516C12.7432 65.1441 7.6916 60.1042 7.6916 53.9093Z" fill="white"/>
</g>
<mask id="mask3_130_783" style="mask-type:luminance" maskUnits="userSpaceOnUse" x="64" y="33" width="43" height="39">
<path d="M64.6885 33.9395H107V71.8438H64.6885V33.9395Z" fill="white"/>
</mask>
<g mask="url(#mask3_130_783)">
<path d="M88.0485 33.9486H77.0104V41.6235H88.0485C94.2575 41.6235 99.3085 46.6641 99.3085 52.8589C99.3085 59.0544 94.2575 64.095 88.0485 64.095H64.6904V71.7692H88.0485C98.4988 71.7692 107 63.2865 107 52.8589C107 42.432 98.4988 33.9486 88.0485 33.9486Z" fill="white"/>
</g>
</g>
</svg>
